<svg width="64" height="64" viewBox="0 0 64 64" xmlns="http://www.w3.org/2000/svg">
  <!-- Shield background -->
  <path d="M32 4L8 12V28C8 44 18 58 32 60C46 58 56 44 56 28V12L32 4Z" fill="#2C5530" stroke="#8B4513" stroke-width="2"/>
  
  <!-- Inner shield -->
  <path d="M32 8L12 14V26C12 40 20 52 32 54C44 52 52 40 52 26V14L32 8Z" fill="#3A7A3D"/>
  
  <!-- MSC text -->
  <text x="32" y="28" font-family="Arial Black, sans-serif" font-size="12" font-weight="bold" text-anchor="middle" fill="white">MSC</text>
  
  <!-- Vehicle symbols -->
  <rect x="18" y="35" width="8" height="4" fill="#FFA500" rx="1"/>
  <circle cx="20" cy="41" r="2" fill="#333"/>
  <circle cx="24" cy="41" r="2" fill="#333"/>
  
  <rect x="38" y="35" width="8" height="4" fill="#FFA500" rx="1"/>
  <circle cx="40" cy="41" r="2" fill="#333"/>
  <circle cx="44" cy="41" r="2" fill="#333"/>
  
  <!-- Supply chain arrows -->
  <path d="M28 36 L32 32 L36 36" stroke="white" stroke-width="2" fill="none"/>
</svg>